HIERARCHY
ROOT root
{
	OFFSET 0.000000 0.000000 0.000000
	CHANNELS 6 Xposition Yposition Zposition Zrotation Yrotation Xrotation
	JOINT lhip
	{
		OFFSET 0.058581 -0.082280 -0.017664
		CHANNELS 3 Zrotation Yrotation Xrotation
		JOINT lknee
		{
			OFFSET 0.043451 -0.386469 0.008037
			CHANNELS 3 Zrotation Yrotation Xrotation
			JOINT lankle
			{
				OFFSET -0.014790 -0.426874 -0.037428
				CHANNELS 3 Zrotation Yrotation Xrotation
				JOINT ltoe
				{
					OFFSET 0.041054 -0.060286 0.122042
					CHANNELS 3 Zrotation Yrotation Xrotation
					End Site
					{
						OFFSET 0.000000 0.000000 0.000000
					}
				}
			}
		}
	}
	JOINT rhip
	{
		OFFSET -0.060310 -0.090513 -0.013543
		CHANNELS 3 Zrotation Yrotation Xrotation
		JOINT rknee
		{
			OFFSET -0.043257 -0.383688 -0.004843
			CHANNELS 3 Zrotation Yrotation Xrotation
			JOINT rankle
			{
				OFFSET 0.019056 -0.420046 -0.034562
				CHANNELS 3 Zrotation Yrotation Xrotation
				JOINT rtoe
				{
					OFFSET -0.034840 -0.062106 0.130323
					CHANNELS 3 Zrotation Yrotation Xrotation
					End Site
					{
						OFFSET 0.000000 0.000000 0.000000
					}
				}
			}
		}
	}
	JOINT lowerback
	{
		OFFSET 0.004439 0.124404 -0.038385
		CHANNELS 3 Zrotation Yrotation Xrotation
		JOINT upperback
		{
			OFFSET 0.004488 0.137956 0.026820
			CHANNELS 3 Zrotation Yrotation Xrotation
			JOINT chest
			{
				OFFSET -0.002265 0.056032 0.002855
				CHANNELS 3 Zrotation Yrotation Xrotation
				JOINT lowerneck
				{
					OFFSET -0.013390 0.211636 -0.033468
					CHANNELS 3 Zrotation Yrotation Xrotation
					JOINT upperneck
					{
						OFFSET 0.010113 0.088937 0.050410
						CHANNELS 3 Zrotation Yrotation Xrotation
						End Site
						{
							OFFSET 0.000000 0.000000 0.000000
						}
					}
				}
				JOINT lclavicle
				{
					OFFSET 0.071702 0.114000 -0.018898
					CHANNELS 3 Zrotation Yrotation Xrotation
					JOINT lshoulder
					{
						OFFSET 0.122921 0.045205 -0.019046
						CHANNELS 3 Zrotation Yrotation Xrotation
						JOINT lelbow
						{
							OFFSET 0.255332 -0.015649 -0.022946
							CHANNELS 3 Zrotation Yrotation Xrotation
							JOINT lwrist
							{
								OFFSET 0.265709 0.012698 -0.007375
								CHANNELS 3 Zrotation Yrotation Xrotation
								End Site
								{
									OFFSET 0.000000 0.000000 0.000000
								}
							}
						}
					}
				}
				JOINT rclavicle
				{
					OFFSET -0.082954 0.112472 -0.023707
					CHANNELS 3 Zrotation Yrotation Xrotation
					JOINT rshoulder
					{
						OFFSET -0.113228 0.046853 -0.008472
						CHANNELS 3 Zrotation Yrotation Xrotation
						JOINT relbow
						{
							OFFSET -0.260127 -0.014369 -0.031269
							CHANNELS 3 Zrotation Yrotation Xrotation
							JOINT rwrist
							{
								OFFSET -0.269108 0.006794 -0.006027
								CHANNELS 3 Zrotation Yrotation Xrotation
								End Site
								{
									OFFSET 0.000000 0.000000 0.000000
								}
							}
						}
					}
				}
			}
		}
	}
}
MOTION
Frames: 5
Frame Time: 0.033333
1.276312 0.720366 0.916461 -96.192635 2.360745 90.068195 6.908234 2.058295 -28.621121 -1.514598 10.556886 50.294134 5.994400 17.415312 -29.732585 0.000000 -0.000000 0.000000 2.847940 2.811394 -26.230871 0.732890 -3.953760 45.821809 -1.281277 -10.491105 -30.960727 0.000000 -0.000000 0.000000 -2.285886 1.641039 25.271341 2.220345 -3.398135 -4.108197 2.252622 -1.952929 2.022371 3.772121 10.616566 -26.098068 3.189750 0.833515 -12.610146 -19.601652 -8.587458 -0.170935 -45.552129 -9.912558 0.062032 11.417426 -22.429163 -9.135638 -4.454585 0.750941 -12.764778 19.429398 8.403184 -1.109280 53.062706 11.795949 4.428652 -28.122613 18.635619 -22.819098 2.403567 -1.067928 -10.356059 
1.278053 0.720574 0.900488 -94.838651 2.830005 91.207979 7.886550 3.012038 -33.366769 -1.414933 11.714290 55.937505 6.109354 17.198758 -30.990233 0.000000 -0.000000 0.000000 2.521842 2.572218 -29.998440 0.779180 -5.428495 50.619479 -1.570730 -11.042592 -32.897415 0.000000 -0.000000 0.000000 -2.060817 1.350244 27.766829 2.411472 -3.099989 -6.349960 2.433793 -2.316621 1.830349 3.842368 11.394640 -27.276219 2.729782 0.846129 -13.698779 -19.139634 -8.902293 0.233081 -43.470681 -7.952425 0.451782 11.344644 -26.943747 -6.286062 0.331622 1.318244 -11.234389 18.889222 9.574836 -0.879156 51.442028 14.501935 1.895755 -27.604517 15.152355 -29.181694 -3.937348 -3.750113 -16.344443 
1.279657 0.720807 0.881370 -93.795073 3.063853 91.049271 9.029839 3.511618 -36.437928 -1.840129 12.788240 61.168357 6.506346 17.254224 -32.374721 0.000000 -0.000000 0.000000 1.897860 2.266317 -32.412979 1.092478 -6.654172 55.461545 -2.346701 -11.933272 -34.938871 0.000000 -0.000000 0.000000 -1.990022 1.468548 28.394748 2.489592 -3.319986 -3.665063 2.210925 -1.973958 0.694178 3.770926 12.541579 -27.666304 1.925349 1.066847 -15.934050 -18.478195 -10.935958 1.360650 -41.990068 -6.006235 0.320187 12.581394 -30.126193 -5.750938 5.946082 1.970257 -10.270919 18.643458 13.168261 0.214836 49.725668 19.141901 -1.049556 -27.954378 10.986244 -35.392450 -14.434272 -8.096587 -16.422026 
1.279322 0.721101 0.862851 -92.643840 3.137888 91.259014 10.169169 3.200451 -39.125516 -1.389636 13.557229 65.830075 5.851834 15.279108 -35.062842 0.000000 -0.000000 0.000000 0.894570 2.380634 -34.730051 1.472537 -8.126050 59.697400 -3.644773 -13.877746 -36.637468 0.000000 -0.000000 0.000000 -1.432264 1.226199 29.185098 1.519048 -3.243924 -1.858748 2.394859 -1.678034 -0.886460 1.806978 13.140717 -30.500735 2.771814 1.044506 -15.105520 -20.140787 -13.350715 2.367820 -39.906873 -2.686253 -2.887040 11.207631 -30.696314 -5.118070 5.141360 -1.809742 -7.521356 19.395128 17.680518 3.315464 46.337332 24.861150 -4.650359 -25.772527 10.067283 -41.505741 -33.248256 -10.807994 -14.588941 
1.277976 0.722174 0.849155 -91.204059 2.885443 90.961690 10.286121 2.855586 -40.780483 -2.750751 12.556225 69.070471 5.240648 14.832338 -36.468707 0.000000 -0.000000 0.000000 0.449664 1.582854 -35.974938 1.244510 -8.471730 63.324929 -3.892636 -14.723921 -38.279612 0.000000 -0.000000 0.000000 -1.605002 1.760717 29.967728 1.150905 -2.847402 -1.025242 2.483759 -1.289103 -1.505728 0.823287 14.001766 -32.135150 1.287474 1.877808 -14.303593 -21.510170 -14.633253 3.378351 -41.648393 -1.021415 -2.834208 12.693500 -28.625446 -4.995328 5.330536 -0.952894 -7.600628 20.862066 21.114498 4.243496 44.661937 30.184082 -5.371324 -24.943972 12.093408 -41.352733 -28.796674 -10.717066 -17.640115 
